<?xml version="1.0" encoding="UTF-8"?><svg id="a" xmlns="http://www.w3.org/2000/svg" viewBox="0 0 466.73 382.61"><defs><style>.b{letter-spacing:-.04em;}.c{font-size:26px;}.c,.d{font-family:Bahnschrift-Bold, Bahnschrift;font-variation-settings:'wght' 700, 'wdth' 100;}.c,.d,.e{fill:#231f20;}.d{font-size:85px;}.f{letter-spacing:0em;}.g{letter-spacing:-.01em;}</style></defs><text/><text class="d" transform="translate(93.76 239.99)"><tspan class="b" x="0" y="0">T</tspan><tspan class="f" x="37.6" y="0">r</tspan><tspan x="73.05" y="0">ee</tspan></text><text class="c" transform="translate(102.88 264.32)"><tspan x="0" y="0">Photograp</tspan><tspan class="g" x="120.62" y="0">h</tspan><tspan x="134.76" y="0">y</tspan></text><g><path class="e" d="M80.83,190.78c.01-.36,.03-.72,.03-1.08,0-15.58-13.69-28.21-30.58-28.21s-30,12.11-30.55,27.24c-11.28,2.28-19.73,11.55-19.73,22.65,0,12.72,11.1,23.04,24.84,23.19l-6-5.84c-.81-.79-.84-2.1-.06-2.93,.78-.83,2.06-.85,2.88-.06l8.57,8.34c7.58-1.44,13.9-6.02,17.32-12.2v-17.93c0-1.4,1.23-2.53,2.74-2.53s2.74,1.13,2.74,2.53v18.63c1.78,3.14,4.34,5.83,7.45,7.87l9.49-7.61c.95-.76,2.4-.67,3.22,.21,.83,.88,.73,2.21-.23,2.97l-8.3,6.65c2.99,1.22,6.3,1.91,9.78,1.91,13.35,0,24.17-9.98,24.17-22.3,0-10.28-7.54-18.92-17.79-21.5Z"/><path class="e" d="M53.03,236.43v-13.85c-.83-1.47-1.51-3.04-1.97-4.68-.26,0-.51,.02-.77,.02-.34,0-.67-.01-1.01-.02-.44,1.39-1.03,2.72-1.73,3.99v29.06l-17.32-16.85c-1.64,.31-3.34,.49-5.08,.49-.1,0-.2,0-.3,0l21.22,20.65c.39,.38,.9,.57,1.41,.57,.03,0,.05,0,.08,0v15.68c0,1.4,1.23,2.53,2.74,2.53s2.74-1.13,2.74-2.53v-29.47l11.64-9.34c-1.49-.61-2.89-1.36-4.2-2.22l-7.45,5.97Z"/></g><text/></svg>